<?xml version="1.0" encoding="utf-8"?>
<!-- Generator: Adobe Illustrator 19.0.0, SVG Export Plug-In . SVG Version: 6.00 Build 0)  -->
<svg version="1.1" id="Layer_1" xmlns="http://www.w3.org/2000/svg" xmlns:xlink="http://www.w3.org/1999/xlink" x="0px" y="0px"
	 viewBox="0 0 160.8 61.1" style="enable-background:new 0 0 160.8 61.1;" xml:space="preserve">
<style type="text/css">
	.st0{fill:#2E2E2D;}
	.st1{fill:#B78723;}
	.st2{fill:#928C82;}
</style>
<g id="XMLID_122_">
	<path id="XMLID_123_" class="st0" d="M23.8,20.5c1.8,1.5,2.7,3.2,2.7,5.1c0,2.7-1.1,4.8-3.2,6.3c-2.1,1.5-5.1,2.2-8.8,2.2
		c-0.8,0-1.6,0-2.1,0c-1.9-0.1-3.8-0.1-5.6-0.1c-3,0-5.2,0-6.7,0.1v-0.9c1-0.1,1.7-0.2,2.1-0.3c0.4-0.2,0.8-0.5,0.9-1
		c0.2-0.5,0.2-1.3,0.2-2.4V7.8c0-1.1-0.1-1.9-0.2-2.4C2.9,5,2.6,4.6,2.1,4.4C1.7,4.3,1,4.2,0,4.1V3.2c1.5,0.1,3.7,0.1,6.6,0.1l4.8,0
		c0.6,0,1.2,0,2,0c3.5,0,6.1,0.6,8,1.9c1.8,1.2,2.8,2.9,2.8,5c0,1.7-0.7,3.3-2.2,4.7c-1.5,1.5-3.6,2.4-6.5,3v0.1
		C19.3,18.1,22.1,19,23.8,20.5z M11.2,4.4c-0.4,0.2-0.6,0.6-0.8,1.1c-0.1,0.5-0.2,1.3-0.2,2.4v9.8h1.9c1.9,0,3.2-0.6,4-1.9
		c0.8-1.3,1.1-3,1.1-5.2c0-2.2-0.3-3.8-1-4.9c-0.7-1.1-1.8-1.6-3.2-1.6C12.1,4.1,11.5,4.2,11.2,4.4z M19.3,25.4c0-2.3-0.6-4-1.7-5.2
		c-1.2-1.2-3-1.8-5.5-1.8h-1.8v11c0,1,0.1,1.8,0.2,2.3c0.1,0.5,0.4,0.8,0.8,1c0.4,0.2,1.1,0.3,1.9,0.3
		C17.2,33.1,19.3,30.5,19.3,25.4z"/>
	<path id="XMLID_127_" class="st0" d="M30.9,32.9c-0.9-1-1.4-2.2-1.4-3.8c0-1.3,0.3-2.4,1-3.2c0.7-0.9,1.5-1.5,2.5-2
		c1-0.5,2.2-1,3.7-1.5c1.6-0.6,2.8-1.1,3.5-1.5c0.7-0.5,1.1-1.1,1.1-1.9v-3.4c0-1.2-0.3-2.2-0.8-2.9c-0.6-0.7-1.4-1-2.6-1
		c-1.4,0-2.5,0.3-3.2,1c0.8,0.3,1.4,0.7,1.9,1.3c0.5,0.6,0.7,1.3,0.7,2c0,1-0.3,1.8-1,2.4c-0.7,0.6-1.5,0.9-2.4,0.9
		c-1,0-1.8-0.3-2.4-1c-0.6-0.6-0.8-1.4-0.8-2.4c0-0.8,0.2-1.5,0.6-2.1c0.4-0.6,1-1.1,1.8-1.6c0.8-0.5,1.7-0.8,2.9-1.1
		c1.1-0.3,2.4-0.4,3.8-0.4c1.4,0,2.7,0.1,3.7,0.4c1,0.3,1.9,0.8,2.6,1.5c0.6,0.6,1.1,1.4,1.3,2.4c0.2,0.9,0.3,2.2,0.3,3.8v11.8
		c0,0.7,0.1,1.2,0.2,1.5c0.1,0.3,0.4,0.4,0.8,0.4c0.4,0,1-0.2,1.6-0.7l0.4,0.7c-1.3,1.1-2.9,1.6-4.8,1.6c-1.6,0-2.7-0.3-3.4-1
		c-0.6-0.6-1-1.5-1-2.6c-1.5,2.4-3.6,3.5-6.4,3.5C33.2,34.4,31.8,33.9,30.9,32.9z M41.3,29.8v-8.9c-0.3,0.6-1.1,1.2-2.2,1.9
		c-1.1,0.7-2,1.5-2.6,2.2c-0.6,0.7-0.9,1.8-0.9,3.1c0,1.2,0.2,2.1,0.7,2.6c0.5,0.6,1.1,0.8,2,0.8C39.5,31.6,40.5,31,41.3,29.8z"/>
	<path id="XMLID_130_" class="st1" d="M71.4,15.1c-0.4-0.4-0.6-1-0.6-1.7c0-0.7,0.2-1.4,0.5-2.1c-0.7,0.3-1.3,0.6-1.7,1
		c-0.5,0.4-0.8,0.8-1.2,1.4c0.9,1.1,1.4,2.5,1.4,4.2c0,2.3-0.8,4-2.4,5.2c-1.6,1.2-3.7,1.7-6.3,1.7h-0.8c-1.2,0.7-1.8,1.5-1.8,2.3
		c0,0.9,0.6,1.4,1.7,1.4h4.7c2.6,0,4.6,0.5,6.1,1.4c1.5,0.9,2.3,2.4,2.3,4.3c0,1.5-0.5,2.8-1.4,4c-0.9,1.2-2.4,2.2-4.3,2.9
		c-1.9,0.7-4.3,1.1-7.1,1.1c-2.8,0-5.1-0.4-6.8-1.1c-1.7-0.7-2.5-1.7-2.5-3.1c0-0.9,0.4-1.7,1.2-2.4c0.8-0.7,2-1.3,3.6-1.7l0.4,0.7
		c-1,0.9-1.6,1.9-1.6,3c0,1.2,0.6,2.2,1.7,2.8c1.1,0.7,2.6,1,4.6,1c2,0,3.7-0.4,4.9-1.2c1.3-0.8,1.9-2,1.9-3.4c0-1-0.4-1.7-1.1-2.3
		c-0.7-0.6-2-0.8-3.7-0.8h-2.7c-1.9,0-3.3-0.3-4.4-0.9s-1.6-1.6-1.6-2.9c0-1.1,0.4-2,1.1-2.9c0.8-0.8,1.9-1.7,3.4-2.4
		c-2.1-0.3-3.7-1-5-2.1c-1.2-1.1-1.8-2.7-1.8-4.7c0-2.3,0.8-4,2.4-5.2c1.6-1.2,3.7-1.7,6.3-1.7c2.9,0,5.1,0.7,6.7,2
		c0.6-0.8,1.2-1.4,2-1.9c0.8-0.5,1.6-0.7,2.5-0.7c0.9,0,1.6,0.3,2.1,0.8c0.5,0.5,0.8,1.2,0.8,2c0,0.8-0.2,1.4-0.7,1.9
		c-0.5,0.5-1,0.7-1.6,0.7C72.3,15.7,71.8,15.5,71.4,15.1z M63,22.6c0.4-0.9,0.6-2.5,0.6-4.7c0-2.2-0.2-3.8-0.6-4.7
		c-0.4-0.9-1-1.4-1.9-1.4s-1.4,0.5-1.9,1.4c-0.4,0.9-0.6,2.5-0.6,4.7c0,2.2,0.2,3.8,0.6,4.7c0.4,0.9,1,1.4,1.9,1.4
		S62.6,23.5,63,22.6z"/>
	<path id="XMLID_133_" class="st0" d="M85.6,11.5h5.1v0.9h-5.1V30c0,0.9,0.2,1.5,0.5,1.9c0.3,0.4,0.8,0.5,1.5,0.5
		c1.2,0,2.2-0.9,3-2.6l0.7,0.4c-1.1,3-3.1,4.5-6,4.5c-1.9,0-3.4-0.5-4.4-1.5c-0.6-0.6-1-1.4-1.2-2.3c-0.2-0.9-0.3-2.2-0.3-3.8V12.4
		h-3.7v-0.9h3.7V5.8c2.4,0,4.5-0.5,6.3-1.4V11.5z"/>
	<path id="XMLID_135_" class="st0" d="M110.9,27.6l0.8,0.3c-0.6,1.9-1.6,3.5-3.1,4.8c-1.5,1.3-3.4,2-5.6,2c-3.1,0-5.5-1-7.3-2.9
		c-1.8-2-2.7-4.9-2.7-8.7c0-3.9,1-6.9,2.9-9c1.9-2.1,4.5-3.1,7.8-3.1c5.5,0,8.2,3.2,8.2,9.7H99.6c0,0.4,0,1.1,0,2
		c0,1.9,0.3,3.5,0.8,4.8c0.5,1.3,1.2,2.2,2.1,2.8c0.9,0.6,1.8,0.9,2.8,0.9C107.6,31.1,109.5,29.9,110.9,27.6z M100.8,13.8
		c-0.7,1.3-1.1,3.3-1.3,6h6.8c0.1-2.3-0.2-4.2-0.7-5.7c-0.5-1.5-1.3-2.2-2.3-2.2C102.3,11.8,101.5,12.5,100.8,13.8z"/>
	<path id="XMLID_138_" class="st0" d="M126.4,11.3c0.9,0.3,1.6,0.6,2.1,0.9c0.3,0.2,0.6,0.3,0.8,0.3c0.3,0,0.5-0.1,0.7-0.4
		c0.2-0.3,0.3-0.7,0.4-1.2h0.9c-0.1,1.5-0.2,4-0.2,7.7h-0.9c-0.3-1.9-0.8-3.5-1.7-4.8c-0.9-1.3-2.2-1.9-3.9-1.9
		c-0.9,0-1.6,0.2-2.2,0.7c-0.6,0.5-0.8,1.2-0.8,2c0,1,0.3,1.8,1,2.5c0.7,0.7,1.7,1.6,3.1,2.6l1.3,0.9c1.8,1.3,3.1,2.5,3.9,3.6
		c0.8,1,1.3,2.4,1.3,3.9c0,1.3-0.4,2.4-1.1,3.4c-0.7,1-1.7,1.7-3,2.3c-1.2,0.5-2.6,0.8-4.1,0.8c-1.6,0-3-0.3-4.1-0.9
		c-0.9-0.5-1.6-0.8-2-0.9c-0.3-0.1-0.5,0-0.8,0.3c-0.2,0.3-0.4,0.7-0.5,1.2h-0.9c0.1-1.7,0.2-4.6,0.2-8.7h0.9c0.6,5.3,2.5,8,5.9,8
		c0.8,0,1.6-0.3,2.2-0.8c0.6-0.5,0.9-1.3,0.9-2.3c0-0.8-0.2-1.5-0.5-2.2c-0.4-0.6-0.8-1.2-1.4-1.7c-0.6-0.5-1.4-1.2-2.5-2
		c-1.3-1-2.3-1.9-3-2.5c-0.7-0.6-1.3-1.4-1.7-2.3c-0.5-0.9-0.7-1.8-0.7-2.9c0-1.9,0.7-3.3,2.2-4.4c1.5-1.1,3.2-1.6,5.3-1.6
		C124.5,10.9,125.5,11.1,126.4,11.3z"/>
	<path id="XMLID_140_" class="st0" d="M144.2,15c1.3-2.7,3.7-4.1,7.1-4.1c2.3,0,3.9,0.6,4.8,1.7c0.5,0.6,0.8,1.3,1.1,2.2
		s0.3,2.1,0.3,3.5V30c0,1.2,0.2,2,0.6,2.5c0.4,0.5,1.1,0.7,2.2,0.7v0.9c-3-0.1-4.9-0.2-5.8-0.2c-1,0-2.9,0.1-5.7,0.2v-0.9
		c0.9,0,1.5-0.2,1.8-0.7c0.3-0.4,0.5-1.3,0.5-2.5V16.5c0-1.2-0.2-2.1-0.6-2.7c-0.4-0.6-1.1-0.9-2.1-0.9c-1.2,0-2.2,0.5-3.1,1.4
		c-0.8,0.9-1.2,2.1-1.2,3.6V30c0,1.2,0.2,2,0.5,2.5c0.3,0.5,1,0.7,1.8,0.7v0.9c-2.8-0.1-4.6-0.2-5.4-0.2c-1,0-3,0.1-6,0.2v-0.9
		c1,0,1.7-0.2,2.2-0.7c0.4-0.4,0.6-1.3,0.6-2.5V5.2c0-1.3-0.2-2.3-0.6-2.9c-0.4-0.6-1.1-0.9-2.2-0.9V0.5c0.9,0.1,1.8,0.1,2.7,0.1
		c2.5,0,4.6-0.2,6.4-0.6V15z"/>
</g>
<g id="XMLID_105_">
	<path id="XMLID_106_" class="st1" d="M75.1,50.1V36.9h8.6v1.9h-6.2v3.6h5.9v1.9h-5.9v5.7H75.1z"/>
	<path id="XMLID_108_" class="st1" d="M95.4,50.1L94.1,47h-6.4l-1.3,3.1h-2.4l6-13.2h1.9l6,13.2H95.4z M88.5,45.1h4.8l-2.4-5.6
		L88.5,45.1z"/>
	<path id="XMLID_111_" class="st1" d="M101.4,49.8c-0.9-0.3-1.6-0.7-2.2-1.2l0.8-1.7c0.6,0.5,1.3,0.8,2,1.1c0.7,0.2,1.5,0.3,2.3,0.3
		c0.9,0,1.6-0.2,2.1-0.5c0.5-0.3,0.7-0.8,0.7-1.4c0-0.5-0.2-0.9-0.7-1.1s-1.2-0.5-2.3-0.7c-1.7-0.4-2.9-0.8-3.6-1.4
		c-0.8-0.6-1.1-1.4-1.1-2.5c0-0.8,0.2-1.5,0.6-2.1c0.4-0.6,1-1.1,1.8-1.4s1.7-0.5,2.7-0.5c0.9,0,1.8,0.1,2.6,0.4
		c0.8,0.3,1.5,0.7,2,1.2l-0.8,1.7c-1.2-0.9-2.5-1.4-3.9-1.4c-0.9,0-1.5,0.2-2,0.5c-0.5,0.4-0.7,0.8-0.7,1.4c0,0.5,0.2,0.9,0.7,1.2
		c0.4,0.3,1.2,0.5,2.2,0.8c1.1,0.3,2,0.5,2.7,0.8c0.7,0.3,1.2,0.7,1.6,1.2c0.4,0.5,0.6,1.1,0.6,1.8c0,0.8-0.2,1.5-0.6,2.1
		c-0.4,0.6-1,1-1.8,1.4c-0.8,0.3-1.7,0.5-2.8,0.5C103.2,50.2,102.3,50.1,101.4,49.8z"/>
	<path id="XMLID_113_" class="st1" d="M121.6,36.9h2.4v13.2h-2.4v-5.7h-6.8v5.7h-2.3V36.9h2.3v5.5h6.8V36.9z"/>
	<path id="XMLID_115_" class="st1" d="M127.5,50.1V36.9h2.4v13.2H127.5z"/>
	<path id="XMLID_117_" class="st1" d="M136,49.4c-0.9-0.5-1.7-1.3-2.2-2.3s-0.8-2.2-0.8-3.6c0-1.4,0.3-2.6,0.8-3.6
		c0.5-1,1.2-1.8,2.2-2.3c0.9-0.5,2.1-0.8,3.3-0.8c1.3,0,2.4,0.3,3.3,0.8c0.9,0.5,1.7,1.3,2.2,2.3c0.5,1,0.7,2.2,0.7,3.6
		c0,1.4-0.3,2.6-0.8,3.6s-1.2,1.8-2.2,2.3s-2,0.8-3.3,0.8C138.1,50.2,137,49.9,136,49.4z M142.2,47.1c0.7-0.8,1-2,1-3.6
		c0-1.6-0.3-2.7-1-3.6c-0.7-0.8-1.6-1.2-2.8-1.2s-2.2,0.4-2.8,1.2c-0.7,0.8-1,2-1,3.6c0,1.6,0.3,2.8,1,3.6c0.7,0.8,1.6,1.3,2.8,1.3
		S141.5,47.9,142.2,47.1z"/>
	<path id="XMLID_120_" class="st1" d="M157.6,36.9h2.2v13.2h-1.8l-7.1-9.2v9.2h-2.2V36.9h1.8l7.1,9.2V36.9z"/>
</g>
<g id="XMLID_20_">
	<path id="XMLID_27_" class="st2" d="M2.9,58.4H1.8V61H0.3v-7.1h2.6c0.8,0,1.5,0.2,1.9,0.6s0.7,0.9,0.7,1.6c0,0.5-0.1,0.9-0.3,1.2
		s-0.5,0.6-1,0.8L5.8,61V61H4.3L2.9,58.4z M1.8,57.2h1.2c0.4,0,0.7-0.1,0.9-0.3s0.3-0.4,0.3-0.8c0-0.3-0.1-0.6-0.3-0.8
		s-0.5-0.3-0.9-0.3H1.8V57.2z"/>
	<path id="XMLID_30_" class="st2" d="M12.6,57.6c0,0.7-0.1,1.3-0.4,1.8s-0.6,0.9-1.1,1.2s-1,0.4-1.6,0.4C9,61.1,8.5,61,8,60.7
		S7.2,60,6.9,59.5s-0.4-1.1-0.4-1.8v-0.4c0-0.7,0.1-1.3,0.4-1.8s0.6-0.9,1.1-1.2s1-0.4,1.6-0.4s1.1,0.1,1.6,0.4s0.8,0.7,1.1,1.2
		s0.4,1.1,0.4,1.8V57.6z M11.1,57.3c0-0.7-0.1-1.3-0.4-1.7S10.1,55,9.6,55c-0.5,0-0.9,0.2-1.1,0.6S8,56.6,8,57.3v0.3
		c0,0.7,0.1,1.3,0.4,1.7s0.7,0.6,1.2,0.6c0.5,0,0.9-0.2,1.1-0.6s0.4-0.9,0.4-1.7V57.3z"/>
	<path id="XMLID_33_" class="st2" d="M16,57.1l1.5-3.2h1.6l-2.3,4.5V61h-1.5v-2.6l-2.3-4.5h1.6L16,57.1z"/>
	<path id="XMLID_35_" class="st2" d="M23.1,59.6h-2.6L20.1,61h-1.6l2.6-7.1h1.4l2.7,7.1h-1.6L23.1,59.6z M21,58.4h1.8l-0.9-2.7
		L21,58.4z"/>
	<path id="XMLID_56_" class="st2" d="M27.4,59.9h3.1V61h-4.6v-7.1h1.5V59.9z"/>
	<path id="XMLID_58_" class="st2" d="M35.6,61h-1.5v-7.1h1.5V61z"/>
	<path id="XMLID_60_" class="st2" d="M42.8,61h-1.5l-2.9-4.7V61h-1.5v-7.1h1.5l2.9,4.7v-4.7h1.5V61z"/>
	<path id="XMLID_62_" class="st2" d="M44.2,61v-7.1h2.2c0.6,0,1.2,0.1,1.7,0.4c0.5,0.3,0.9,0.7,1.2,1.2s0.4,1.1,0.4,1.8v0.3
		c0,0.7-0.1,1.2-0.4,1.8c-0.3,0.5-0.7,0.9-1.2,1.2S47,61,46.4,61H44.2z M45.7,55.1v4.7h0.7c0.6,0,1-0.2,1.3-0.6s0.5-0.9,0.5-1.6
		v-0.4c0-0.7-0.1-1.3-0.4-1.6s-0.7-0.6-1.3-0.6H45.7z"/>
	<path id="XMLID_65_" class="st2" d="M52.4,61h-1.5v-7.1h1.5V61z"/>
	<path id="XMLID_67_" class="st2" d="M57.9,59.6h-2.6L54.9,61h-1.6l2.6-7.1h1.4L60,61h-1.6L57.9,59.6z M55.8,58.4h1.8l-0.9-2.7
		L55.8,58.4z"/>
	<path id="XMLID_70_" class="st2" d="M66.5,61h-1.5l-2.9-4.7V61h-1.5v-7.1h1.5l2.9,4.7v-4.7h1.5V61z"/>
	<path id="XMLID_72_" class="st2" d="M70.5,61v-7.1h2.2c0.6,0,1.2,0.1,1.7,0.4c0.5,0.3,0.9,0.7,1.2,1.2s0.4,1.1,0.4,1.8v0.3
		c0,0.7-0.1,1.2-0.4,1.8c-0.3,0.5-0.7,0.9-1.2,1.2S73.3,61,72.7,61H70.5z M72,55.1v4.7h0.7c0.6,0,1-0.2,1.3-0.6s0.5-0.9,0.5-1.6
		v-0.4c0-0.7-0.1-1.3-0.4-1.6s-0.7-0.6-1.3-0.6H72z"/>
	<path id="XMLID_75_" class="st2" d="M81.4,58h-2.8v1.9h3.3V61h-4.8v-7.1h4.8v1.2h-3.3v1.7h2.8V58z"/>
	<path id="XMLID_77_" class="st2" d="M86.5,59.2c0-0.3-0.1-0.5-0.3-0.6s-0.5-0.3-1.1-0.5s-0.9-0.3-1.2-0.5c-0.8-0.4-1.2-1-1.2-1.8
		c0-0.4,0.1-0.7,0.3-1c0.2-0.3,0.5-0.5,0.9-0.7c0.4-0.2,0.9-0.3,1.4-0.3c0.5,0,1,0.1,1.4,0.3s0.7,0.4,0.9,0.8
		c0.2,0.3,0.3,0.7,0.3,1.1h-1.5c0-0.3-0.1-0.6-0.3-0.8S85.7,55,85.3,55c-0.4,0-0.6,0.1-0.8,0.2s-0.3,0.4-0.3,0.6
		c0,0.2,0.1,0.4,0.3,0.6c0.2,0.2,0.6,0.3,1,0.4c0.8,0.3,1.4,0.6,1.8,0.9s0.6,0.8,0.6,1.4c0,0.6-0.2,1.1-0.7,1.4
		c-0.5,0.3-1.1,0.5-1.9,0.5c-0.5,0-1-0.1-1.5-0.3c-0.4-0.2-0.8-0.5-1-0.8c-0.2-0.3-0.4-0.8-0.4-1.2H84c0,0.8,0.5,1.2,1.4,1.2
		c0.3,0,0.6-0.1,0.8-0.2S86.5,59.4,86.5,59.2z"/>
	<path id="XMLID_79_" class="st2" d="M90.6,61h-1.5v-7.1h1.5V61z"/>
	<path id="XMLID_81_" class="st2" d="M97.7,60.1c-0.3,0.3-0.6,0.6-1.1,0.7c-0.5,0.2-1,0.3-1.6,0.3c-0.6,0-1.2-0.1-1.6-0.4
		c-0.5-0.3-0.8-0.7-1.1-1.2c-0.3-0.5-0.4-1.1-0.4-1.8v-0.5c0-0.7,0.1-1.3,0.4-1.8c0.2-0.5,0.6-0.9,1-1.2c0.5-0.3,1-0.4,1.6-0.4
		c0.8,0,1.5,0.2,2,0.6s0.8,1,0.8,1.8h-1.4c-0.1-0.4-0.2-0.7-0.4-0.9c-0.2-0.2-0.5-0.3-0.9-0.3c-0.5,0-0.9,0.2-1.1,0.6
		s-0.4,0.9-0.4,1.7v0.5c0,0.7,0.1,1.3,0.4,1.7s0.7,0.6,1.2,0.6c0.5,0,0.9-0.1,1.2-0.4v-1.2h-1.3v-1.1h2.8V60.1z"/>
	<path id="XMLID_83_" class="st2" d="M104.8,61h-1.5l-2.9-4.7V61H99v-7.1h1.5l2.9,4.7v-4.7h1.5V61z"/>
	<path id="XMLID_85_" class="st2" d="M110.4,58h-2.8v1.9h3.3V61h-4.8v-7.1h4.8v1.2h-3.3v1.7h2.8V58z"/>
	<path id="XMLID_87_" class="st2" d="M114.5,58.4h-1.2V61h-1.5v-7.1h2.6c0.8,0,1.5,0.2,1.9,0.6s0.7,0.9,0.7,1.6
		c0,0.5-0.1,0.9-0.3,1.2c-0.2,0.3-0.5,0.6-1,0.8l1.5,2.9V61h-1.6L114.5,58.4z M113.4,57.2h1.2c0.4,0,0.7-0.1,0.9-0.3
		s0.3-0.4,0.3-0.8c0-0.3-0.1-0.6-0.3-0.8c-0.2-0.2-0.5-0.3-0.9-0.3h-1.2V57.2z"/>
	<path id="XMLID_90_" class="st2" d="M126.8,57.6c0,0.7-0.1,1.3-0.4,1.8s-0.6,0.9-1.1,1.2c-0.5,0.3-1,0.4-1.6,0.4
		c-0.6,0-1.1-0.1-1.6-0.4s-0.8-0.7-1.1-1.2s-0.4-1.1-0.4-1.8v-0.4c0-0.7,0.1-1.3,0.4-1.8c0.3-0.5,0.6-0.9,1.1-1.2
		c0.5-0.3,1-0.4,1.6-0.4s1.1,0.1,1.6,0.4c0.5,0.3,0.8,0.7,1.1,1.2c0.3,0.5,0.4,1.1,0.4,1.8V57.6z M125.3,57.3c0-0.7-0.1-1.3-0.4-1.7
		s-0.6-0.6-1.1-0.6c-0.5,0-0.9,0.2-1.1,0.6s-0.4,0.9-0.4,1.7v0.3c0,0.7,0.1,1.3,0.4,1.7s0.7,0.6,1.2,0.6c0.5,0,0.9-0.2,1.1-0.6
		s0.4-0.9,0.4-1.7V57.3z"/>
	<path id="XMLID_93_" class="st2" d="M133.3,53.9v4.7c0,0.8-0.2,1.4-0.7,1.8c-0.5,0.5-1.2,0.7-2,0.7c-0.8,0-1.5-0.2-2-0.7
		s-0.7-1-0.7-1.8v-4.7h1.5v4.7c0,0.5,0.1,0.8,0.3,1c0.2,0.2,0.5,0.3,0.9,0.3c0.8,0,1.2-0.4,1.3-1.3v-4.7H133.3z"/>
	<path id="XMLID_95_" class="st2" d="M140,55.1h-2.2V61h-1.5v-5.9h-2.1v-1.2h5.8V55.1z"/>
	<path id="XMLID_97_" class="st2" d="M145.2,58.1h-2.8V61h-1.5v-7.1h4.6v1.2h-3.2v1.8h2.8V58.1z"/>
	<path id="XMLID_99_" class="st2" d="M148.1,61h-1.5v-7.1h1.5V61z"/>
	<path id="XMLID_101_" class="st2" d="M154.7,55.1h-2.2V61h-1.5v-5.9h-2.1v-1.2h5.8V55.1z"/>
	<path id="XMLID_103_" class="st2" d="M159.3,59.2c0-0.3-0.1-0.5-0.3-0.6s-0.5-0.3-1.1-0.5s-0.9-0.3-1.2-0.5c-0.8-0.4-1.2-1-1.2-1.8
		c0-0.4,0.1-0.7,0.3-1c0.2-0.3,0.5-0.5,0.9-0.7c0.4-0.2,0.9-0.3,1.4-0.3c0.5,0,1,0.1,1.4,0.3s0.7,0.4,0.9,0.8
		c0.2,0.3,0.3,0.7,0.3,1.1h-1.5c0-0.3-0.1-0.6-0.3-0.8s-0.5-0.3-0.9-0.3c-0.4,0-0.6,0.1-0.8,0.2s-0.3,0.4-0.3,0.6
		c0,0.2,0.1,0.4,0.3,0.6c0.2,0.2,0.6,0.3,1,0.4c0.8,0.3,1.4,0.6,1.8,0.9s0.6,0.8,0.6,1.4c0,0.6-0.2,1.1-0.7,1.4
		c-0.5,0.3-1.1,0.5-1.9,0.5c-0.5,0-1-0.1-1.5-0.3c-0.4-0.2-0.8-0.5-1-0.8c-0.2-0.3-0.4-0.8-0.4-1.2h1.5c0,0.8,0.5,1.2,1.4,1.2
		c0.3,0,0.6-0.1,0.8-0.2S159.3,59.4,159.3,59.2z"/>
</g>
</svg>
